{
  "accessors": [
    {
      "bufferView": 0,
      "componentType": 5125,
      "count": 45156,
      "type": "SCALAR"
    },
    {
      "bufferView": 1,
      "componentType": 5126,
      "count": 8700,
      "max": [
        0.057584549617356595,
        0.058963222566412954,
        0.04282557405169993
      ],
      "min": [
        -0.05758454961735637,
        -0.05896322256641273,
        -0.04282557405169993
      ],
      "type": "VEC3"
    },
    {
      "bufferView": 2,
      "componentType": 5126,
      "count": 8700,
      "max": [
        0.9999998215343652,
        0.9999984870833288,
        0.999837470219596
      ],
      "min": [
        -0.9999996296520605,
        -0.9999998813740207,
        -0.999837470219596
      ],
      "type": "VEC3"
    },
    {
      "bufferView": 3,
      "componentType": 5126,
      "count": 8700,
      "max": [
        1.0,
        0.6026101328790882
      ],
      "min": [
        0.0,
        0.0
      ],
      "type": "VEC2"
    }
  ],
  "asset": {
    "generator": "Adobe Illustrator",
    "version": "2.0"
  },
  "bufferViews": [
    {
      "buffer": 0,
      "byteLength": 180624,
      "target": 34963
    },
    {
      "buffer": 0,
      "byteLength": 104400,
      "byteOffset": 180624,
      "target": 34962
    },
    {
      "buffer": 0,
      "byteLength": 104400,
      "byteOffset": 285024,
      "target": 34962
    },
    {
      "buffer": 0,
      "byteLength": 69600,
      "byteOffset": 389424,
      "target": 34962
    }
  ],
  "buffers": [
    {
      "byteLength": 459024,
      "uri": "data:application/octet-stream;base64,"
    }
  ],
  "materials": [
    {
      "doubleSided": true,
      "pbrMetallicRoughness": {
        "baseColorFactor": [
          0.9140625,
          0.796875,
          0.3046875,
          1.0
        ],
        "metallicFactor": 0.41641300916671753,
        "roughnessFactor": 0.19725540280342102
      }
    }
  ],
  "meshes": [
    {
      "primitives": [
        {
          "attributes": {
            "NORMAL": 2,
            "POSITION": 1,
            "TEXCOORD_0": 3
          },
          "indices": 0,
          "material": 0,
          "mode": 4
        }
      ]
    }
  ],
  "nodes": [
    {
      "mesh": 0
    }
  ],
  "scenes": [
    {
      "nodes": [
        0
      ]
    }
  ]
}
